{"accessors":[{"bufferView":0,"byteOffset":0,"componentType":5126,"count":36,"max":[8.55979919433594,0.100000001490116,0.444092005491257],"min":[-8.55979919433594,-0.10000000149012,-0.44409200549126],"normalized":false,"type":"VEC3"},{"bufferView":1,"byteOffset":0,"componentType":5126,"count":36,"max":[0,0,0.0000763009302318096,-1],"min":[-1,-1,-1,-1],"normalized":false,"type":"VEC4"},{"bufferView":2,"byteOffset":0,"componentType":5126,"count":36,"max":[1,1,1],"min":[-1,-1,-1],"normalized":false,"type":"VEC3"},{"bufferView":3,"byteOffset":0,"componentType":5126,"count":36,"max":[1,1],"min":[0,0],"normalized":false,"type":"VEC2"},{"bufferView":4,"byteOffset":0,"componentType":5123,"count":36,"max":[35],"min":[0],"normalized":false,"type":"SCALAR"},{"bufferView":5,"byteOffset":0,"componentType":5126,"count":36,"max":[8.40904235839844,0.100000001490116,0.444092005491257],"min":[-8.40904235839844,-0.10000000149012,-0.44409200549126],"normalized":false,"type":"VEC3"},{"bufferView":6,"byteOffset":0,"componentType":5126,"count":36,"max":[0,0,0.0000763009302318096,-1],"min":[-1,-1,-1,-1],"normalized":false,"type":"VEC4"},{"bufferView":7,"byteOffset":0,"componentType":5126,"count":36,"max":[1,1,1],"min":[-1,-1,-1],"normalized":false,"type":"VEC3"},{"bufferView":8,"byteOffset":0,"componentType":5126,"count":36,"max":[1,1],"min":[0,0],"normalized":false,"type":"VEC2"},{"bufferView":9,"byteOffset":0,"componentType":5123,"count":36,"max":[35],"min":[0],"normalized":false,"type":"SCALAR"},{"bufferView":10,"byteOffset":0,"componentType":5126,"count":36,"max":[8.60643005371094,0.100000001490116,0.444092005491257],"min":[-8.60643005371094,-0.10000000149012,-0.44409200549126],"normalized":false,"type":"VEC3"},{"bufferView":11,"byteOffset":0,"componentType":5126,"count":36,"max":[0,0,0.0000763009302318096,-1],"min":[-1,-1,-1,-1],"normalized":false,"type":"VEC4"},{"bufferView":12,"byteOffset":0,"componentType":5126,"count":36,"max":[1,1,1],"min":[-1,-1,-1],"normalized":false,"type":"VEC3"},{"bufferView":13,"byteOffset":0,"componentType":5126,"count":36,"max":[1,1],"min":[0,0],"normalized":false,"type":"VEC2"},{"bufferView":14,"byteOffset":0,"componentType":5123,"count":36,"max":[35],"min":[0],"normalized":false,"type":"SCALAR"},{"bufferView":15,"byteOffset":0,"componentType":5126,"count":36,"max":[8.3329963684082,0.100000001490116,0.444092005491257],"min":[-8.3329963684082,-0.10000000149012,-0.44409200549126],"normalized":false,"type":"VEC3"},{"bufferView":16,"byteOffset":0,"componentType":5126,"count":36,"max":[0,0,0.0000763009302318096,-1],"min":[-1,-1,-1,-1],"normalized":false,"type":"VEC4"},{"bufferView":17,"byteOffset":0,"componentType":5126,"count":36,"max":[1,1,1],"min":[-1,-1,-1],"normalized":false,"type":"VEC3"},{"bufferView":18,"byteOffset":0,"componentType":5126,"count":36,"max":[1,1],"min":[0,0],"normalized":false,"type":"VEC2"},{"bufferView":19,"byteOffset":0,"componentType":5123,"count":36,"max":[35],"min":[0],"normalized":false,"type":"SCALAR"},{"bufferView":20,"byteOffset":0,"componentType":5126,"count":36,"max":[8.49662780761719,0.100000001490116,0.444092005491257],"min":[-8.49662780761719,-0.10000000149012,-0.44409200549126],"normalized":false,"type":"VEC3"},{"bufferView":21,"byteOffset":0,"componentType":5126,"count":36,"max":[0,0,0.0000763009302318096,-1],"min":[-1,-1,-1,-1],"normalized":false,"type":"VEC4"},{"bufferView":22,"byteOffset":0,"componentType":5126,"count":36,"max":[1,1,1],"min":[-1,-1,-1],"normalized":false,"type":"VEC3"},{"bufferView":23,"byteOffset":0,"componentType":5126,"count":36,"max":[1,1],"min":[0,0],"normalized":false,"type":"VEC2"},{"bufferView":24,"byteOffset":0,"componentType":5123,"count":36,"max":[35],"min":[0],"normalized":false,"type":"SCALAR"}],"asset":{"generator":"Godot Engine v4.3.stable.official@77dcf97d82cbfe4e4615475fa52ca03da645dbd8","version":"2.0"},"bufferViews":[{"buffer":0,"byteLength":432,"byteOffset":0,"byteStride":12,"target":34962},{"buffer":0,"byteLength":576,"byteOffset":432,"byteStride":16,"target":34962},{"buffer":0,"byteLength":432,"byteOffset":1008,"byteStride":12,"target":34962},{"buffer":0,"byteLength":288,"byteOffset":1440,"byteStride":8,"target":34962},{"buffer":0,"byteLength":72,"byteOffset":1728,"target":34963},{"buffer":0,"byteLength":432,"byteOffset":1800,"byteStride":12,"target":34962},{"buffer":0,"byteLength":576,"byteOffset":2232,"byteStride":16,"target":34962},{"buffer":0,"byteLength":432,"byteOffset":2808,"byteStride":12,"target":34962},{"buffer":0,"byteLength":288,"byteOffset":3240,"byteStride":8,"target":34962},{"buffer":0,"byteLength":72,"byteOffset":3528,"target":34963},{"buffer":0,"byteLength":432,"byteOffset":3600,"byteStride":12,"target":34962},{"buffer":0,"byteLength":576,"byteOffset":4032,"byteStride":16,"target":34962},{"buffer":0,"byteLength":432,"byteOffset":4608,"byteStride":12,"target":34962},{"buffer":0,"byteLength":288,"byteOffset":5040,"byteStride":8,"target":34962},{"buffer":0,"byteLength":72,"byteOffset":5328,"target":34963},{"buffer":0,"byteLength":432,"byteOffset":5400,"byteStride":12,"target":34962},{"buffer":0,"byteLength":576,"byteOffset":5832,"byteStride":16,"target":34962},{"buffer":0,"byteLength":432,"byteOffset":6408,"byteStride":12,"target":34962},{"buffer":0,"byteLength":288,"byteOffset":6840,"byteStride":8,"target":34962},{"buffer":0,"byteLength":72,"byteOffset":7128,"target":34963},{"buffer":0,"byteLength":432,"byteOffset":7200,"byteStride":12,"target":34962},{"buffer":0,"byteLength":576,"byteOffset":7632,"byteStride":16,"target":34962},{"buffer":0,"byteLength":432,"byteOffset":8208,"byteStride":12,"target":34962},{"buffer":0,"byteLength":288,"byteOffset":8640,"byteStride":8,"target":34962},{"buffer":0,"byteLength":72,"byteOffset":8928,"target":34963}],"buffers":[{"byteLength":9000,"uri":"Node3D0.bin"}],"extensionsUsed":["GODOT_single_root"],"materials":[{"extensions":{},"pbrMetallicRoughness":{"baseColorFactor":[0.99999988079071,0.99999988079071,0.99999988079071,1],"metallicFactor":0,"roughnessFactor":1}},{"extensions":{},"pbrMetallicRoughness":{"baseColorFactor":[0.99999988079071,0.99999988079071,0.99999988079071,1],"metallicFactor":0,"roughnessFactor":1}},{"extensions":{},"pbrMetallicRoughness":{"baseColorFactor":[0.99999988079071,0.99999988079071,0.99999988079071,1],"metallicFactor":0,"roughnessFactor":1}},{"extensions":{},"pbrMetallicRoughness":{"baseColorFactor":[0.99999988079071,0.99999988079071,0.99999988079071,1],"metallicFactor":0,"roughnessFactor":1}},{"extensions":{},"pbrMetallicRoughness":{"baseColorFactor":[0.99999988079071,0.99999988079071,0.99999988079071,1],"metallicFactor":0,"roughnessFactor":1}}],"meshes":[{"extras":{"targetNames":[]},"primitives":[{"attributes":{"NORMAL":2,"POSITION":0,"TANGENT":1,"TEXCOORD_0":3},"indices":4,"material":0,"mode":4}]},{"extras":{"targetNames":[]},"primitives":[{"attributes":{"NORMAL":7,"POSITION":5,"TANGENT":6,"TEXCOORD_0":8},"indices":9,"material":1,"mode":4}]},{"extras":{"targetNames":[]},"primitives":[{"attributes":{"NORMAL":12,"POSITION":10,"TANGENT":11,"TEXCOORD_0":13},"indices":14,"material":2,"mode":4}]},{"extras":{"targetNames":[]},"primitives":[{"attributes":{"NORMAL":17,"POSITION":15,"TANGENT":16,"TEXCOORD_0":18},"indices":19,"material":3,"mode":4}]},{"extras":{"targetNames":[]},"primitives":[{"attributes":{"NORMAL":22,"POSITION":20,"TANGENT":21,"TEXCOORD_0":23},"indices":24,"material":4,"mode":4}]}],"nodes":[{"children":[1,2,3,4,5],"name":"Node3D"},{"mesh":0,"name":"CSGBox3D2","scale":[1,1,0.800000011920929],"translation":[-1.01002502441406,0,-2.23927688598633]},{"mesh":1,"name":"CSGBox3D42","scale":[1.00000011920929,1,0.800000011920929],"translation":[-0.99720764160156,0,0.219790816307068]},{"mesh":2,"name":"CSGBox3D52","scale":[1.00000047683716,1,0.800000011920929],"translation":[-0.98194885253906,0,-3.48573732376099]},{"mesh":3,"name":"CSGBox3D62","scale":[0.999999940395355,1,0.800000011920929],"translation":[-1,0,1.4495050907135]},{"mesh":4,"name":"CSGBox3D72","scale":[1,1,0.800000011920929],"translation":[-1.0271999835968,0,-0.98400002717972]}],"scene":0,"scenes":[{"nodes":[0]}]}